<?xml version="1.0" encoding="UTF-8" standalone="no"?>
<!DOCTYPE svg PUBLIC "-//W3C//DTD SVG 1.1//EN" "http://www.w3.org/Graphics/SVG/1.1/DTD/svg11.dtd">
<svg width="100%" height="100%" viewBox="0 0 100 100" version="1.1" xmlns="http://www.w3.org/2000/svg" xmlns:xlink="http://www.w3.org/1999/xlink" xml:space="preserve" xmlns:serif="http://www.serif.com/" style="fill-rule:evenodd;clip-rule:evenodd;stroke-linecap:square;stroke-linejoin:round;stroke-miterlimit:1.5;">
    <g transform="matrix(2.273504,0,0,2.04878,-41,-26.829268)">
        <path d="M58.5,27.25L58.5,47.75C58.5,53.407 54.361,58 49.263,58L9.237,58C4.139,58 0,53.407 0,47.75L0,27.25C0,21.593 4.139,17 9.237,17L49.263,17C54.361,17 58.5,21.593 58.5,27.25Z" style="fill:url(#_Linear1);stroke:rgb(172,112,255);stroke-width:0.92px;"/>
    </g>
    <g transform="matrix(2.027586,0,0,2.027586,-39.213793,-54.234483)">
        <g opacity="0.89">
            <path d="M38,58L50,46" style="fill:none;stroke:white;stroke-width:3px;"/>
            <path d="M38,46L50,58" style="fill:none;stroke:white;stroke-width:3px;"/>
            <g transform="matrix(0.828571,0,0,0.828571,2.985714,5.185714)">
                <path d="M61.874,44.126C65.156,47.408 67,51.859 67,56.5C67,62.752 63.665,68.529 58.25,71.655" style="fill:none;stroke:white;stroke-width:2.41px;stroke-dasharray:1.207,4.828,0,0,0,0;"/>
            </g>
            <g transform="matrix(0.828571,0,0,0.828571,2.985714,5.185714)">
                <g transform="matrix(0.595238,-0,-0,0.595238,19.738095,26.02381)">
                    <path d="M47.917,15.717L60.083,21.8L47.917,27.883L47.917,15.717Z" style="fill:white;"/>
                    <path d="M64.7,76.661C60.231,79.242 55.161,80.6 50,80.6C33.774,80.6 20.6,67.426 20.6,51.2C20.6,34.963 33.763,21.8 50,21.8L50.35,21.8" style="fill:none;stroke:white;stroke-width:4.06px;"/>
                </g>
            </g>
        </g>
    </g>
    <defs>
        <linearGradient id="_Linear1" x1="0" y1="0" x2="1" y2="0" gradientUnits="userSpaceOnUse" gradientTransform="matrix(60.259398,-34.264286,19.501543,42.233083,-3.518797,58)"><stop offset="0" style="stop-color:rgb(89,57,175);stop-opacity:1"/><stop offset="0.32" style="stop-color:rgb(95,94,215);stop-opacity:1"/><stop offset="1" style="stop-color:rgb(171,51,218);stop-opacity:1"/></linearGradient>
    </defs>
</svg>
